<?xml version="1.0" standalone="no"?>
<!DOCTYPE svg PUBLIC "-//W3C//DTD SVG 20010904//EN"
 "http://www.w3.org/TR/2001/REC-SVG-20010904/DTD/svg10.dtd">
<svg version="1.0" xmlns="http://www.w3.org/2000/svg"
 width="352.000000pt" height="143.000000pt" viewBox="0 0 352.000000 143.000000"
 preserveAspectRatio="xMidYMid meet">

<g transform="translate(0.000000,143.000000) scale(0.100000,-0.100000)"
fill="#FFFFFF" stroke="#000000">
<path d="M3077 1248 c24 -12 38 -41 28 -58 -4 -7 -20 -9 -38 -5 -24 5 -28 4
-17 -4 13 -10 13 -12 0 -21 -19 -12 -13 -12 30 0 19 5 43 7 54 4 16 -5 18 -13
13 -55 -4 -31 -2 -47 4 -44 19 12 37 61 35 95 -1 28 -10 41 -45 67 -23 18 -52
33 -64 32 l-22 0 22 -11z"/>
<path d="M2655 1143 c7 -60 -5 -84 -32 -62 -27 24 -134 82 -139 76 -3 -2 15
-22 40 -44 24 -21 51 -55 59 -75 15 -35 14 -36 -9 -47 -14 -6 -75 -11 -137
-11 -180 -1 -312 -32 -469 -110 -99 -49 -234 -142 -320 -220 -36 -33 -69 -60
-72 -60 -3 0 -45 33 -93 73 -203 167 -265 210 -396 273 -139 67 -226 86 -387
87 -155 1 -224 -13 -337 -68 -90 -44 -152 -106 -195 -192 -29 -60 -33 -78 -36
-167 -3 -82 0 -112 17 -159 71 -202 299 -318 596 -303 266 13 473 105 747 333
l89 74 72 -66 c274 -254 625 -372 911 -306 60 14 96 27 96 35 0 9 -10 12 -27
9 -27 -4 -28 -4 -8 13 20 16 20 16 -5 10 -209 -56 -380 -47 -582 28 -146 55
-321 174 -404 275 l-28 34 49 45 c219 199 471 309 719 313 44 1 54 3 36 9 -23
7 -22 8 15 15 22 5 76 8 120 7 108 -1 218 17 204 34 -5 6 -21 15 -35 18 -23 6
-25 11 -19 34 17 70 17 87 -5 115 -31 40 -42 34 -35 -20z m-1665 -239 c163
-41 350 -145 514 -287 l58 -51 -85 -83 c-142 -137 -277 -211 -452 -248 -106
-23 -323 -24 -424 -2 -155 34 -277 117 -322 220 -33 74 -33 184 0 251 97 198
390 281 711 200z"/>
<path d="M2951 998 c-6 -17 -19 -40 -28 -50 -9 -10 -21 -28 -27 -40 -6 -12
-27 -27 -46 -34 l-35 -12 30 -1 c31 -1 31 -1 29 -53 -1 -29 -4 -69 -8 -88 -7
-34 -7 -34 9 -15 26 31 45 81 45 120 0 32 3 36 31 42 l32 6 -24 18 -24 18 23
30 c22 30 31 91 13 91 -5 0 -14 -14 -20 -32z"/>
<path d="M3250 897 c0 -3 7 -21 15 -40 17 -41 19 -61 6 -53 -5 4 -37 10 -70
14 -65 9 -85 -3 -24 -14 20 -4 47 -18 60 -32 l23 -25 -22 -24 -22 -23 46 14
c26 7 60 23 76 35 17 11 36 21 44 21 8 0 6 5 -5 11 -10 6 -27 9 -37 6 -19 -5
-37 23 -26 41 7 12 -20 49 -45 62 -10 6 -19 9 -19 7z"/>
<path d="M2846 504 c-3 -8 -6 -31 -6 -50 0 -19 -11 -56 -25 -82 -14 -26 -25
-53 -25 -60 0 -7 -21 -33 -46 -58 -25 -25 -44 -48 -42 -50 12 -11 86 23 123
57 52 48 92 51 168 13 l52 -26 -29 31 -30 31 40 0 c52 0 27 16 -41 25 -66 9
-85 21 -85 51 0 69 -39 156 -54 118z"/>
</g>
</svg>
