<?xml version="1.0" standalone="no"?>
<!DOCTYPE svg PUBLIC "-//W3C//DTD SVG 20010904//EN"
 "http://www.w3.org/TR/2001/REC-SVG-20010904/DTD/svg10.dtd">
<svg version="1.0" xmlns="http://www.w3.org/2000/svg"
 width="498.000000pt" height="196.000000pt" viewBox="0 0 498.000000 196.000000"
 preserveAspectRatio="xMidYMid meet">

<g transform="translate(0.000000,196.000000) scale(0.100000,-0.100000)"
fill="#ffffff" stroke="none">
<path d="M760 1905 c-162 -29 -317 -107 -443 -224 -48 -45 -137 -160 -171
-223 -92 -167 -126 -406 -82 -573 34 -127 106 -260 191 -352 298 -322 737
-383 1168 -164 147 75 330 203 467 327 36 33 84 71 106 86 37 24 65 68 44 68
-10 0 -88 -61 -205 -160 -194 -164 -294 -232 -465 -314 -167 -80 -252 -100
-425 -101 -166 0 -252 20 -390 91 -464 237 -589 755 -279 1161 168 219 404
325 694 309 269 -14 485 -117 810 -387 74 -61 185 -160 245 -218 61 -58 146
-138 190 -176 44 -39 87 -76 95 -84 55 -53 491 -391 503 -391 4 0 7 7 7 15 0
8 -3 15 -7 15 -24 0 -239 215 -423 424 -19 21 -75 73 -125 114 -49 41 -142
125 -205 185 -138 132 -326 286 -441 360 -290 188 -582 260 -859 212z"/>
<path d="M3515 1906 c-217 -32 -491 -164 -710 -341 -167 -134 -375 -326 -375
-344 0 -20 12 -12 152 111 310 272 513 398 763 474 82 25 104 28 260 28 184 1
252 -12 370 -71 131 -66 276 -206 350 -338 41 -73 54 -83 91 -66 50 22 45 59
-22 158 -192 284 -542 439 -879 389z"/>
<path d="M4680 1376 c0 -9 26 -40 57 -70 62 -59 63 -73 5 -78 -25 -2 -31 -6
-26 -18 4 -8 6 -23 6 -32 -1 -20 9 -23 24 -9 5 6 38 25 74 44 53 28 71 45 98
88 37 61 41 89 13 89 -12 0 -34 -20 -56 -50 -20 -27 -41 -50 -47 -50 -5 0 -35
19 -66 43 -76 58 -82 61 -82 43z"/>
<path d="M4574 1083 l-9 -48 -74 1 -74 0 26 -22 c14 -12 44 -25 66 -29 43 -7
49 -13 30 -32 -13 -13 -5 -43 10 -43 15 0 70 99 77 138 4 22 1 40 -10 57 -23
36 -31 31 -42 -22z"/>
<path d="M4168 789 c-28 -16 -21 -29 16 -29 47 0 83 -15 96 -40 9 -17 7 -28
-9 -56 -25 -42 -13 -44 55 -11 l46 22 53 -60 c30 -33 56 -57 59 -54 11 10 -43
107 -79 144 -63 62 -195 110 -237 84z"/>
<path d="M3984 689 c46 -54 46 -99 0 -99 -13 0 -24 -4 -24 -10 0 -11 5 -12 65
-14 l40 -1 -4 -54 c-4 -66 16 -67 39 -2 14 41 14 44 -14 97 -30 57 -86 114
-112 114 -12 0 -10 -7 10 -31z"/>
<path d="M3610 571 c0 -5 12 -14 28 -20 15 -6 41 -22 57 -35 27 -22 29 -26 16
-49 -7 -14 -29 -33 -47 -43 -19 -10 -34 -24 -34 -31 0 -17 39 -16 70 2 33 19
65 19 80 0 7 -9 16 -44 19 -78 6 -59 7 -61 20 -38 7 14 16 52 18 86 4 48 2 63
-11 74 -9 7 -16 24 -16 37 0 41 -103 102 -172 104 -16 0 -28 -4 -28 -9z"/>
<path d="M3349 430 c-28 -38 -55 -70 -60 -70 -5 0 -49 27 -97 59 -48 33 -89
57 -91 56 -2 -2 8 -24 23 -48 25 -44 78 -97 97 -97 5 0 9 -9 9 -19 0 -21 -19
-31 -59 -31 -26 0 -27 -2 -27 -50 1 -27 4 -50 8 -50 4 0 16 12 28 27 12 16 53
40 97 59 74 30 77 33 114 100 41 72 52 134 24 134 -8 0 -38 -31 -66 -70z"/>
<path d="M4181 375 c-7 -41 -16 -75 -19 -75 -4 0 -47 11 -97 24 -49 13 -91 23
-92 22 -2 -1 4 -11 11 -22 8 -12 46 -30 90 -44 l76 -24 -31 -32 c-28 -29 -29
-33 -14 -42 30 -16 54 -2 89 57 57 94 66 174 22 203 -20 14 -23 8 -35 -67z"/>
<path d="M3470 291 c0 -6 21 -17 48 -24 31 -9 51 -22 60 -38 11 -22 9 -27 -28
-60 -42 -39 -45 -45 -30 -69 8 -12 16 -7 49 28 57 62 94 53 120 -30 19 -60 31
-55 31 12 0 122 -57 181 -181 188 -45 3 -69 1 -69 -7z"/>
</g>
</svg>
